{
  "source": "C:\\Users\\Peter\\Desktop\\stuff\\MIUN\\quantitative_research\\video_compression\\videos\\BVI-HD\\BVI-HD_CDVL_videos\\ORIG\\Toys_1920x1080_30fps.mp4",
  "output": "C:\\Users\\Peter\\Desktop\\stuff\\MIUN\\quantitative_research\\video_compression\\compressed_videos\\BVI-HD\\hevc\\2\\Toys_1920x1080_30fps_hevc.mp4",
  "codec": "hevc",
  "ok": "Input #0, mov,mp4,m4a,3gp,3g2,mj2, from 'C:\\Users\\Peter\\Desktop\\stuff\\MIUN\\quantitative_research\\video_compression\\videos\\BVI-HD\\BVI-HD_CDVL_videos\\ORIG\\Toys_1920x1080_30fps.mp4':\n  Metadata:\n    major_brand     : isom\n    minor_version   : 512\n    compatible_brands: isomiso2avc1mp41\n    encoder         : Lavf54.28.101\n  Duration: 00:00:05.00, start: 0.000000, bitrate: 270887 kb/s\n  Stream #0:0[0x1](und): Video: h264 (High 4:4:4 Predictive) (avc1 / 0x31637661), yuv420p(progressive), 1920x1080, 270883 kb/s, 30 fps, 30 tbr, 30 tbn (default)\n    Metadata:\n      handler_name    : VideoHandler\n      vendor_id       : [0][0][0][0]\n[out#0/mp4 @ 000002872df5ac00] Codec AVOption b:a (set bitrate (in bits/s)) has not been used for any stream. The most likely reason is either wrong type (e.g. a video option with no video streams) or that it is a private option of some decoder which was not actually used for any stream.\nStream mapping:\n  Stream #0:0 -> #0:0 (h264 (native) -> hevc (libx265))\nPress [q] to stop, [?] for help\n[libx265 @ 000002872ea900c0] Unknown option: \"aq-mode.\nx265 [info]: HEVC encoder version 4.1+190-8f11c33ac\nx265 [info]: build info [Windows][GCC 15.1.0][64 bit] 10bit\nx265 [info]: using cpu capabilities: MMX2 SSE2Fast LZCNT SSSE3 SSE4.2 AVX FMA3 BMI2 AVX2\nx265 [info]: Main 10 profile, Level-4 (Main tier)\nx265 [info]: Thread pool created using 12 threads\nx265 [info]: Slices                              : 1\nx265 [info]: frame threads / pool features       : 3 / wpp(17 rows)\nx265 [info]: Coding QT: max CU size, min CU size : 64 / 8\nx265 [info]: Residual QT: max TU size, max depth : 32 / 1 inter / 1 intra\nx265 [info]: ME / range / subpel / merge         : star / 57 / 3 / 3\nx265 [info]: Keyframe min / max / scenecut / bias  : 25 / 250 / 40 / 5.00 \nx265 [info]: Lookahead / bframes / badapt        : 25 / 4 / 2\nx265 [info]: b-pyramid / weightp / weightb       : 1 / 1 / 0\nx265 [info]: References / ref-limit  cu / depth  : 4 / on / on\nx265 [info]: AQ: mode / str / qg-size / cu-tree  : 2 / 1.0 / 32 / 1\nx265 [info]: Rate Control / qCompress            : ABR-2000 kbps / 0.60\nx265 [info]: VBV/HRD buffer / max-rate / init    : 2000 / 2000 / 0.750\nx265 [info]: tools: rect limit-modes rd=4 psy-rd=2.00 rdoq=2 psy-rdoq=1.00\nx265 [info]: tools: rskip mode=1 signhide tmvp strong-intra-smoothing lslices=4\nx265 [info]: tools: deblock sao dhdr10-info\nOutput #0, mp4, to 'C:\\Users\\Peter\\Desktop\\stuff\\MIUN\\quantitative_research\\video_compression\\compressed_videos\\BVI-HD\\hevc\\2\\Toys_1920x1080_30fps_hevc.mp4':\n  Metadata:\n    major_brand     : isom\n    minor_version   : 512\n    compatible_brands: isomiso2avc1mp41\n    encoder         : Lavf62.3.100\n  Stream #0:0(und): Video: hevc (hev1 / 0x31766568), yuv420p10le(tv, progressive), 1920x1080, q=2-31, 2000 kb/s, 30 fps, 15360 tbn (default)\n    Metadata:\n      encoder         : Lavc62.11.100 libx265\n      handler_name    : VideoHandler\n      vendor_id       : [0][0][0][0]\n    Side data:\n      cpb: bitrate max/min/avg: 2000000/0/2000000 buffer size: 2000000 vbv_delay: N/A\nframe=    0 fps=0.0 q=0.0 size=       0KiB time=N/A bitrate=N/A speed=N/A elapsed=0:00:00.51    \nframe=    0 fps=0.0 q=0.0 size=       0KiB time=N/A bitrate=N/A speed=N/A elapsed=0:00:01.05    \nframe=    0 fps=0.0 q=0.0 size=       0KiB time=N/A bitrate=N/A speed=N/A elapsed=0:00:01.56    \nframe=    0 fps=0.0 q=0.0 size=       0KiB time=N/A bitrate=N/A speed=N/A elapsed=0:00:02.09    \nframe=    0 fps=0.0 q=0.0 size=       0KiB time=N/A bitrate=N/A speed=N/A elapsed=0:00:02.60    \nframe=    0 fps=0.0 q=0.0 size=       0KiB time=N/A bitrate=N/A speed=N/A elapsed=0:00:03.12    \nframe=    0 fps=0.0 q=0.0 size=       0KiB time=N/A bitrate=N/A speed=N/A elapsed=0:00:03.64    \nframe=    0 fps=0.0 q=0.0 size=       0KiB time=N/A bitrate=N/A speed=N/A elapsed=0:00:04.15    \nframe=    0 fps=0.0 q=0.0 size=       0KiB time=N/A bitrate=N/A speed=N/A elapsed=0:00:04.67    \nframe=    2 fps=0.4 q=42.5 size=       0KiB time=00:00:00.00 bitrate=N/A speed=   0x elapsed=0:00:05.18    \nframe=    3 fps=0.5 q=47.6 size=       0KiB time=00:00:00.03 bitrate=  10.6kbits/s speed=0.00584x elapsed=0:00:05.70    \nframe=    4 fps=0.6 q=48.9 size=       0KiB time=00:00:00.06 bitrate=   5.3kbits/s speed=0.0107x elapsed=0:00:06.21    \nframe=    4 fps=0.6 q=48.9 size=       0KiB time=00:00:00.06 bitrate=   5.3kbits/s speed=0.00992x elapsed=0:00:06.72    \nframe=    4 fps=0.6 q=48.9 size=       0KiB time=00:00:00.06 bitrate=   5.3kbits/s speed=0.00918x elapsed=0:00:07.26    \nframe=    5 fps=0.6 q=46.8 size=       0KiB time=00:00:00.10 bitrate=   3.5kbits/s speed=0.0127x elapsed=0:00:07.85    \nframe=    5 fps=0.6 q=46.8 size=       0KiB time=00:00:00.10 bitrate=   3.5kbits/s speed=0.0119x elapsed=0:00:08.38    \nframe=    5 fps=0.6 q=46.8 size=       0KiB time=00:00:00.10 bitrate=   3.5kbits/s speed=0.0112x elapsed=0:00:08.91    \nframe=    7 fps=0.7 q=42.2 size=       0KiB time=00:00:00.16 bitrate=   2.1kbits/s speed=0.0177x elapsed=0:00:09.44    \nframe=    7 fps=0.7 q=42.2 size=       0KiB time=00:00:00.16 bitrate=   2.1kbits/s speed=0.0167x elapsed=0:00:09.97    \nframe=    7 fps=0.7 q=42.2 size=       0KiB time=00:00:00.16 bitrate=   2.1kbits/s speed=0.0159x elapsed=0:00:10.51    \nframe=    7 fps=0.6 q=42.2 size=       0KiB time=00:00:00.16 bitrate=   2.1kbits/s speed=0.0151x elapsed=0:00:11.04    \nframe=    7 fps=0.6 q=42.2 size=       0KiB time=00:00:00.16 bitrate=   2.1kbits/s speed=0.0144x elapsed=0:00:11.55    \nframe=    7 fps=0.6 q=42.2 size=       0KiB time=00:00:00.16 bitrate=   2.1kbits/s speed=0.0138x elapsed=0:00:12.08    \nframe=    7 fps=0.6 q=42.2 size=       0KiB time=00:00:00.16 bitrate=   2.1kbits/s speed=0.0132x elapsed=0:00:12.62    \nframe=    8 fps=0.6 q=42.8 size=       0KiB time=00:00:00.20 bitrate=   1.8kbits/s speed=0.0152x elapsed=0:00:13.15    \nframe=    8 fps=0.6 q=42.8 size=       0KiB time=00:00:00.20 bitrate=   1.8kbits/s speed=0.0146x elapsed=0:00:13.68    \nframe=    8 fps=0.6 q=42.8 size=       0KiB time=00:00:00.20 bitrate=   1.8kbits/s speed=0.0141x elapsed=0:00:14.22    \nframe=   10 fps=0.7 q=37.9 size=       0KiB time=00:00:00.26 bitrate=   1.3kbits/s speed=0.0181x elapsed=0:00:14.73    \nframe=   10 fps=0.7 q=37.9 size=       0KiB time=00:00:00.26 bitrate=   1.3kbits/s speed=0.0175x elapsed=0:00:15.24    \nframe=   11 fps=0.7 q=42.3 size=       0KiB time=00:00:00.30 bitrate=   1.2kbits/s speed=0.019x elapsed=0:00:15.77    \nframe=   11 fps=0.7 q=42.3 size=       0KiB time=00:00:00.30 bitrate=   1.2kbits/s speed=0.0184x elapsed=0:00:16.28    \nframe=   11 fps=0.7 q=42.3 size=       0KiB time=00:00:00.30 bitrate=   1.2kbits/s speed=0.0178x elapsed=0:00:16.82    \nframe=   11 fps=0.6 q=42.3 size=       0KiB time=00:00:00.30 bitrate=   1.2kbits/s speed=0.0173x elapsed=0:00:17.34    \nframe=   11 fps=0.6 q=42.3 size=       0KiB time=00:00:00.30 bitrate=   1.2kbits/s speed=0.0168x elapsed=0:00:17.87    \nframe=   11 fps=0.6 q=42.3 size=       0KiB time=00:00:00.30 bitrate=   1.2kbits/s speed=0.0163x elapsed=0:00:18.38    \nframe=   11 fps=0.6 q=42.3 size=       0KiB time=00:00:00.30 bitrate=   1.2kbits/s speed=0.0159x elapsed=0:00:18.90    \nframe=   12 fps=0.6 q=43.4 size=       0KiB time=00:00:00.33 bitrate=   1.1kbits/s speed=0.0172x elapsed=0:00:19.41    \nframe=   12 fps=0.6 q=43.4 size=       0KiB time=00:00:00.33 bitrate=   1.1kbits/s speed=0.0167x elapsed=0:00:19.94    \nframe=   13 fps=0.6 q=44.2 size=       0KiB time=00:00:00.36 bitrate=   1.0kbits/s speed=0.0179x elapsed=0:00:20.46    \nframe=   13 fps=0.6 q=44.2 size=       0KiB time=00:00:00.36 bitrate=   1.0kbits/s speed=0.0175x elapsed=0:00:21.00    \nframe=   14 fps=0.7 q=37.5 size=       0KiB time=00:00:00.40 bitrate=   0.9kbits/s speed=0.0186x elapsed=0:00:21.52    \nframe=   15 fps=0.7 q=41.7 size=       0KiB time=00:00:00.43 bitrate=   0.8kbits/s speed=0.0196x elapsed=0:00:22.06    \nframe=   15 fps=0.7 q=41.7 size=       0KiB time=00:00:00.43 bitrate=   0.8kbits/s speed=0.0192x elapsed=0:00:22.60    \nframe=   15 fps=0.6 q=41.7 size=       0KiB time=00:00:00.43 bitrate=   0.8kbits/s speed=0.0187x elapsed=0:00:23.11    \nframe=   15 fps=0.6 q=41.7 size=       0KiB time=00:00:00.43 bitrate=   0.8kbits/s speed=0.0183x elapsed=0:00:23.62    \nframe=   16 fps=0.7 q=44.0 size=       0KiB time=00:00:00.46 bitrate=   0.8kbits/s speed=0.0193x elapsed=0:00:24.14    \nframe=   16 fps=0.6 q=44.0 size=       0KiB time=00:00:00.46 bitrate=   0.8kbits/s speed=0.0189x elapsed=0:00:24.67    \nframe=   17 fps=0.7 q=44.0 size=       0KiB time=00:00:00.50 bitrate=   0.7kbits/s speed=0.0198x elapsed=0:00:25.19    \nframe=   18 fps=0.7 q=37.1 size=       0KiB time=00:00:00.53 bitrate=   0.7kbits/s speed=0.0207x elapsed=0:00:25.71    \nframe=   18 fps=0.7 q=37.1 size=       0KiB time=00:00:00.53 bitrate=   0.7kbits/s speed=0.0203x elapsed=0:00:26.23    \nframe=   18 fps=0.7 q=37.1 size=       0KiB time=00:00:00.53 bitrate=   0.7kbits/s speed=0.0199x elapsed=0:00:26.74    \nframe=   18 fps=0.7 q=37.1 size=       0KiB time=00:00:00.53 bitrate=   0.7kbits/s speed=0.0195x elapsed=0:00:27.29    \nframe=   18 fps=0.6 q=37.1 size=       0KiB time=00:00:00.53 bitrate=   0.7kbits/s speed=0.0192x elapsed=0:00:27.80    \nframe=   18 fps=0.6 q=37.1 size=       0KiB time=00:00:00.53 bitrate=   0.7kbits/s speed=0.0188x elapsed=0:00:28.31    \nframe=   18 fps=0.6 q=37.1 size=       0KiB time=00:00:00.53 bitrate=   0.7kbits/s speed=0.0185x elapsed=0:00:28.83    \nframe=   19 fps=0.6 q=41.4 size=       0KiB time=00:00:00.56 bitrate=   0.6kbits/s speed=0.0193x elapsed=0:00:29.34    \nframe=   19 fps=0.6 q=41.4 size=       0KiB time=00:00:00.56 bitrate=   0.6kbits/s speed=0.019x elapsed=0:00:29.86    \nframe=   20 fps=0.7 q=44.0 size=       0KiB time=00:00:00.60 bitrate=   0.6kbits/s speed=0.0197x elapsed=0:00:30.38    \nframe=   20 fps=0.6 q=44.0 size=       0KiB time=00:00:00.60 bitrate=   0.6kbits/s speed=0.0194x elapsed=0:00:30.90    \nframe=   21 fps=0.7 q=37.0 size=       0KiB time=00:00:00.63 bitrate=   0.6kbits/s speed=0.0201x elapsed=0:00:31.43    \nframe=   22 fps=0.7 q=40.9 size=       0KiB time=00:00:00.66 bitrate=   0.5kbits/s speed=0.0209x elapsed=0:00:31.95    \nframe=   22 fps=0.7 q=40.9 size=       0KiB time=00:00:00.66 bitrate=   0.5kbits/s speed=0.0205x elapsed=0:00:32.48    \nframe=   22 fps=0.7 q=40.9 size=       0KiB time=00:00:00.66 bitrate=   0.5kbits/s speed=0.0202x elapsed=0:00:32.98    \nframe=   22 fps=0.7 q=40.9 size=       0KiB time=00:00:00.66 bitrate=   0.5kbits/s speed=0.0199x elapsed=0:00:33.52    \nframe=   22 fps=0.6 q=40.9 size=       0KiB time=00:00:00.66 bitrate=   0.5kbits/s speed=0.0196x elapsed=0:00:34.04    \nframe=   22 fps=0.6 q=40.9 size=       0KiB time=00:00:00.66 bitrate=   0.5kbits/s speed=0.0193x elapsed=0:00:34.56    \nframe=   22 fps=0.6 q=40.9 size=       0KiB time=00:00:00.66 bitrate=   0.5kbits/s speed=0.019x elapsed=0:00:35.09    \nframe=   23 fps=0.6 q=43.0 size=       0KiB time=00:00:00.70 bitrate=   0.5kbits/s speed=0.0196x elapsed=0:00:35.64    \nframe=   23 fps=0.6 q=43.0 size=       0KiB time=00:00:00.70 bitrate=   0.5kbits/s speed=0.0194x elapsed=0:00:36.15    \nframe=   24 fps=0.7 q=43.1 size=       0KiB time=00:00:00.73 bitrate=   0.5kbits/s speed=0.02x elapsed=0:00:36.68    \nframe=   24 fps=0.6 q=43.1 size=       0KiB time=00:00:00.73 bitrate=   0.5kbits/s speed=0.0197x elapsed=0:00:37.23    \nframe=   25 fps=0.7 q=37.0 size=       0KiB time=00:00:00.76 bitrate=   0.5kbits/s speed=0.0203x elapsed=0:00:37.75    \nframe=   25 fps=0.7 q=37.0 size=       0KiB time=00:00:00.76 bitrate=   0.5kbits/s speed=0.02x elapsed=0:00:38.28    \nframe=   26 fps=0.7 q=41.6 size=       0KiB time=00:00:00.80 bitrate=   0.4kbits/s speed=0.0206x elapsed=0:00:38.82    \nframe=   27 fps=0.7 q=43.1 size=       0KiB time=00:00:00.83 bitrate=   0.4kbits/s speed=0.0212x elapsed=0:00:39.36    \nframe=   27 fps=0.7 q=43.1 size=       0KiB time=00:00:00.83 bitrate=   0.4kbits/s speed=0.0209x elapsed=0:00:39.88    \nframe=   27 fps=0.7 q=43.1 size=       0KiB time=00:00:00.83 bitrate=   0.4kbits/s speed=0.0206x elapsed=0:00:40.43    \nframe=   27 fps=0.7 q=43.1 size=       0KiB time=00:00:00.83 bitrate=   0.4kbits/s speed=0.0203x elapsed=0:00:40.96    \nframe=   28 fps=0.7 q=42.8 size=       0KiB time=00:00:00.86 bitrate=   0.4kbits/s speed=0.0209x elapsed=0:00:41.47    \nframe=   28 fps=0.7 q=42.8 size=       0KiB time=00:00:00.86 bitrate=   0.4kbits/s speed=0.0206x elapsed=0:00:42.01    \nframe=   28 fps=0.7 q=42.8 size=       0KiB time=00:00:00.86 bitrate=   0.4kbits/s speed=0.0204x elapsed=0:00:42.53    \nframe=   29 fps=0.7 q=43.2 size=       0KiB time=00:00:00.90 bitrate=   0.4kbits/s speed=0.0209x elapsed=0:00:43.05    \nframe=   30 fps=0.7 q=36.5 size=       0KiB time=00:00:00.93 bitrate=   0.4kbits/s speed=0.0214x elapsed=0:00:43.57    \nframe=   30 fps=0.7 q=36.5 size=       0KiB time=00:00:00.93 bitrate=   0.4kbits/s speed=0.0212x elapsed=0:00:44.09    \nframe=   31 fps=0.7 q=40.7 size=       0KiB time=00:00:00.96 bitrate=   0.4kbits/s speed=0.0217x elapsed=0:00:44.64    \nframe=   31 fps=0.7 q=40.7 size=       0KiB time=00:00:00.96 bitrate=   0.4kbits/s speed=0.0214x elapsed=0:00:45.16    \nframe=   31 fps=0.7 q=40.7 size=       0KiB time=00:00:00.96 bitrate=   0.4kbits/s speed=0.0212x elapsed=0:00:45.69    \nframe=   31 fps=0.7 q=40.7 size=       0KiB time=00:00:00.96 bitrate=   0.4kbits/s speed=0.0209x elapsed=0:00:46.22    \nframe=   32 fps=0.7 q=43.0 size=       0KiB time=00:00:01.00 bitrate=   0.4kbits/s speed=0.0214x elapsed=0:00:46.74    \nframe=   32 fps=0.7 q=43.0 size=       0KiB time=00:00:01.00 bitrate=   0.4kbits/s speed=0.0212x elapsed=0:00:47.26    \nframe=   33 fps=0.7 q=42.7 size=       0KiB time=00:00:01.03 bitrate=   0.3kbits/s speed=0.0216x elapsed=0:00:47.78    \nframe=   33 fps=0.7 q=42.7 size=       0KiB time=00:00:01.03 bitrate=   0.3kbits/s speed=0.0214x elapsed=0:00:48.31    \nframe=   34 fps=0.7 q=36.7 size=       0KiB time=00:00:01.06 bitrate=   0.3kbits/s speed=0.0218x elapsed=0:00:48.85    \nframe=   34 fps=0.7 q=36.7 size=       0KiB time=00:00:01.06 bitrate=   0.3kbits/s speed=0.0216x elapsed=0:00:49.38    \nframe=   34 fps=0.7 q=36.7 size=       0KiB time=00:00:01.06 bitrate=   0.3kbits/s speed=0.0213x elapsed=0:00:49.96    \nframe=   35 fps=0.7 q=40.3 size=     256KiB time=00:00:01.10 bitrate=1906.8kbits/s speed=0.0218x elapsed=0:00:50.53    \nframe=   35 fps=0.7 q=40.3 size=     256KiB time=00:00:01.10 bitrate=1906.8kbits/s speed=0.0215x elapsed=0:00:51.05    \nframe=   35 fps=0.7 q=40.3 size=     256KiB time=00:00:01.10 bitrate=1906.8kbits/s speed=0.0213x elapsed=0:00:51.57    \nframe=   35 fps=0.7 q=40.3 size=     256KiB time=00:00:01.10 bitrate=1906.8kbits/s speed=0.0211x elapsed=0:00:52.09    \nframe=   36 fps=0.7 q=43.1 size=     256KiB time=00:00:01.13 bitrate=1850.7kbits/s speed=0.0215x elapsed=0:00:52.60    \nframe=   36 fps=0.7 q=43.1 size=     256KiB time=00:00:01.13 bitrate=1850.7kbits/s speed=0.0213x elapsed=0:00:53.14    \nframe=   37 fps=0.7 q=42.2 size=     256KiB time=00:00:01.16 bitrate=1797.9kbits/s speed=0.0217x elapsed=0:00:53.64    \nframe=   38 fps=0.7 q=36.4 size=     256KiB time=00:00:01.20 bitrate=1747.9kbits/s speed=0.0222x elapsed=0:00:54.16    \nframe=   39 fps=0.7 q=40.2 size=     256KiB time=00:00:01.23 bitrate=1700.7kbits/s speed=0.0226x elapsed=0:00:54.68    \nframe=   39 fps=0.7 q=40.2 size=     256KiB time=00:00:01.23 bitrate=1700.7kbits/s speed=0.0223x elapsed=0:00:55.20    \nframe=   40 fps=0.7 q=42.1 size=     256KiB time=00:00:01.26 bitrate=1655.9kbits/s speed=0.0227x elapsed=0:00:55.71    \nframe=   42 fps=0.7 q=36.5 size=     256KiB time=00:00:01.33 bitrate=1573.1kbits/s speed=0.0237x elapsed=0:00:56.22    \nframe=   42 fps=0.7 q=36.5 size=     256KiB time=00:00:01.33 bitrate=1573.1kbits/s speed=0.0235x elapsed=0:00:56.75    \nframe=   43 fps=0.8 q=39.7 size=     256KiB time=00:00:01.36 bitrate=1534.8kbits/s speed=0.0239x elapsed=0:00:57.25    \nframe=   43 fps=0.7 q=39.7 size=     256KiB time=00:00:01.36 bitrate=1534.8kbits/s speed=0.0237x elapsed=0:00:57.78    \nframe=   45 fps=0.8 q=36.2 size=     256KiB time=00:00:01.43 bitrate=1463.4kbits/s speed=0.0246x elapsed=0:00:58.28    \nframe=   46 fps=0.8 q=39.5 size=     256KiB time=00:00:01.46 bitrate=1430.1kbits/s speed=0.0249x elapsed=0:00:58.81    \nframe=   46 fps=0.8 q=39.5 size=     256KiB time=00:00:01.46 bitrate=1430.1kbits/s speed=0.0247x elapsed=0:00:59.32    \nframe=   47 fps=0.8 q=40.9 size=     256KiB time=00:00:01.50 bitrate=1398.3kbits/s speed=0.0251x elapsed=0:00:59.84    \nframe=   48 fps=0.8 q=42.2 size=     256KiB time=00:00:01.53 bitrate=1367.9kbits/s speed=0.0254x elapsed=0:01:00.35    \nframe=   49 fps=0.8 q=36.2 size=     256KiB time=00:00:01.56 bitrate=1338.8kbits/s speed=0.0257x elapsed=0:01:00.87    \nframe=   50 fps=0.8 q=40.6 size=     256KiB time=00:00:01.60 bitrate=1310.9kbits/s speed=0.0261x elapsed=0:01:01.37    \nframe=   50 fps=0.8 q=40.6 size=     256KiB time=00:00:01.60 bitrate=1310.9kbits/s speed=0.0258x elapsed=0:01:01.90    \nframe=   51 fps=0.8 q=42.2 size=     256KiB time=00:00:01.63 bitrate=1284.2kbits/s speed=0.0262x elapsed=0:01:02.41    \nframe=   51 fps=0.8 q=42.2 size=     256KiB time=00:00:01.63 bitrate=1284.2kbits/s speed=0.026x elapsed=0:01:02.93    \nframe=   51 fps=0.8 q=42.2 size=     256KiB time=00:00:01.63 bitrate=1284.2kbits/s speed=0.0257x elapsed=0:01:03.44    \nframe=   52 fps=0.8 q=41.8 size=     256KiB time=00:00:01.66 bitrate=1258.5kbits/s speed=0.0261x elapsed=0:01:03.96    \nframe=   53 fps=0.8 q=42.0 size=     256KiB time=00:00:01.70 bitrate=1233.8kbits/s speed=0.0264x elapsed=0:01:04.48    \nframe=   54 fps=0.8 q=36.4 size=     256KiB time=00:00:01.73 bitrate=1210.1kbits/s speed=0.0267x elapsed=0:01:04.98    \nframe=   55 fps=0.8 q=40.1 size=     256KiB time=00:00:01.76 bitrate=1187.3kbits/s speed=0.027x elapsed=0:01:05.51    \nframe=   55 fps=0.8 q=40.1 size=     256KiB time=00:00:01.76 bitrate=1187.3kbits/s speed=0.0268x elapsed=0:01:06.02    \nframe=   56 fps=0.8 q=42.1 size=     256KiB time=00:00:01.80 bitrate=1165.3kbits/s speed=0.0271x elapsed=0:01:06.54    \nframe=   58 fps=0.9 q=36.3 size=     256KiB time=00:00:01.86 bitrate=1123.7kbits/s speed=0.0278x elapsed=0:01:07.05    \nframe=   58 fps=0.9 q=36.3 size=     256KiB time=00:00:01.86 bitrate=1123.7kbits/s speed=0.0276x elapsed=0:01:07.58    \nframe=   58 fps=0.9 q=36.3 size=     256KiB time=00:00:01.86 bitrate=1123.7kbits/s speed=0.0274x elapsed=0:01:08.15    \nframe=   59 fps=0.9 q=39.4 size=     256KiB time=00:00:01.90 bitrate=1103.9kbits/s speed=0.0276x elapsed=0:01:08.71    \nframe=   59 fps=0.9 q=39.4 size=     256KiB time=00:00:01.90 bitrate=1103.9kbits/s speed=0.0274x elapsed=0:01:09.25    \nframe=   60 fps=0.9 q=42.2 size=     256KiB time=00:00:01.93 bitrate=1084.9kbits/s speed=0.0277x elapsed=0:01:09.76    \nframe=   60 fps=0.9 q=42.2 size=     256KiB time=00:00:01.93 bitrate=1084.9kbits/s speed=0.0275x elapsed=0:01:10.28    \nframe=   60 fps=0.8 q=42.2 size=     256KiB time=00:00:01.93 bitrate=1084.9kbits/s speed=0.0273x elapsed=0:01:10.80    \nframe=   60 fps=0.8 q=42.2 size=     256KiB time=00:00:01.93 bitrate=1084.9kbits/s speed=0.0271x elapsed=0:01:11.31    \nframe=   61 fps=0.8 q=42.1 size=     256KiB time=00:00:01.96 bitrate=1066.5kbits/s speed=0.0274x elapsed=0:01:11.83    \nframe=   61 fps=0.8 q=42.1 size=     256KiB time=00:00:01.96 bitrate=1066.5kbits/s speed=0.0272x elapsed=0:01:12.37    \nframe=   61 fps=0.8 q=42.1 size=     256KiB time=00:00:01.96 bitrate=1066.5kbits/s speed=0.027x elapsed=0:01:12.91    \nframe=   61 fps=0.8 q=42.1 size=     256KiB time=00:00:01.96 bitrate=1066.5kbits/s speed=0.0268x elapsed=0:01:13.49    \nframe=   61 fps=0.8 q=42.1 size=     256KiB time=00:00:01.96 bitrate=1066.5kbits/s speed=0.0266x elapsed=0:01:14.05    \nframe=   61 fps=0.8 q=42.1 size=     256KiB time=00:00:01.96 bitrate=1066.5kbits/s speed=0.0264x elapsed=0:01:14.59    \nframe=   61 fps=0.8 q=42.1 size=     256KiB time=00:00:01.96 bitrate=1066.5kbits/s speed=0.0262x elapsed=0:01:15.19    \nframe=   62 fps=0.8 q=36.3 size=     256KiB time=00:00:02.00 bitrate=1048.8kbits/s speed=0.0264x elapsed=0:01:15.74    \nframe=   63 fps=0.8 q=39.3 size=     256KiB time=00:00:02.03 bitrate=1031.6kbits/s speed=0.0266x elapsed=0:01:16.30    \nframe=   63 fps=0.8 q=39.3 size=     256KiB time=00:00:02.03 bitrate=1031.6kbits/s speed=0.0265x elapsed=0:01:16.86    \nframe=   63 fps=0.8 q=39.3 size=     256KiB time=00:00:02.03 bitrate=1031.6kbits/s speed=0.0263x elapsed=0:01:17.39    \nframe=   64 fps=0.8 q=42.2 size=     256KiB time=00:00:02.03 bitrate=1031.6kbits/s speed=0.0261x elapsed=0:01:17.92    \nframe=   64 fps=0.8 q=42.2 size=     256KiB time=00:00:02.06 bitrate=1014.9kbits/s speed=0.0263x elapsed=0:01:18.51    \nframe=   65 fps=0.8 q=42.5 size=     256KiB time=00:00:02.10 bitrate= 998.8kbits/s speed=0.0266x elapsed=0:01:19.05    \nframe=   65 fps=0.8 q=42.5 size=     256KiB time=00:00:02.10 bitrate= 998.8kbits/s speed=0.0264x elapsed=0:01:19.60    \nframe=   65 fps=0.8 q=42.5 size=     256KiB time=00:00:02.10 bitrate= 998.8kbits/s speed=0.0262x elapsed=0:01:20.16    \nframe=   65 fps=0.8 q=42.5 size=     256KiB time=00:00:02.10 bitrate= 998.8kbits/s speed=0.026x elapsed=0:01:20.73    \nframe=   66 fps=0.8 q=36.2 size=     256KiB time=00:00:02.13 bitrate= 983.2kbits/s speed=0.0262x elapsed=0:01:21.32    \nframe=   66 fps=0.8 q=36.2 size=     256KiB time=00:00:02.13 bitrate= 983.2kbits/s speed=0.0261x elapsed=0:01:21.86    \nframe=   66 fps=0.8 q=36.2 size=     256KiB time=00:00:02.13 bitrate= 983.2kbits/s speed=0.0259x elapsed=0:01:22.40    \nframe=   66 fps=0.8 q=36.2 size=     256KiB time=00:00:02.13 bitrate= 983.2kbits/s speed=0.0257x elapsed=0:01:22.97    \nframe=   66 fps=0.8 q=36.2 size=     256KiB time=00:00:02.13 bitrate= 983.2kbits/s speed=0.0256x elapsed=0:01:23.49    \nframe=   66 fps=0.8 q=36.2 size=     256KiB time=00:00:02.13 bitrate= 983.2kbits/s speed=0.0254x elapsed=0:01:24.01    \nframe=   66 fps=0.8 q=36.2 size=     256KiB time=00:00:02.13 bitrate= 983.2kbits/s speed=0.0252x elapsed=0:01:24.60    \nframe=   66 fps=0.8 q=36.2 size=     256KiB time=00:00:02.13 bitrate= 983.2kbits/s speed=0.0251x elapsed=0:01:25.14    \nframe=   66 fps=0.8 q=36.2 size=     256KiB time=00:00:02.13 bitrate= 983.2kbits/s speed=0.0249x elapsed=0:01:25.67    \nframe=   66 fps=0.8 q=36.2 size=     256KiB time=00:00:02.13 bitrate= 983.2kbits/s speed=0.0247x elapsed=0:01:26.23    \nframe=   66 fps=0.8 q=36.2 size=     256KiB time=00:00:02.13 bitrate= 983.2kbits/s speed=0.0246x elapsed=0:01:26.80    \nframe=   66 fps=0.8 q=36.2 size=     256KiB time=00:00:02.13 bitrate= 983.2kbits/s speed=0.0244x elapsed=0:01:27.38    \nframe=   66 fps=0.8 q=36.2 size=     256KiB time=00:00:02.13 bitrate= 983.2kbits/s speed=0.0243x elapsed=0:01:27.96    \nframe=   67 fps=0.8 q=39.1 size=     256KiB time=00:00:02.16 bitrate= 968.1kbits/s speed=0.0245x elapsed=0:01:28.58    \nframe=   67 fps=0.8 q=39.1 size=     256KiB time=00:00:02.16 bitrate= 968.1kbits/s speed=0.0243x elapsed=0:01:29.14    \nframe=   67 fps=0.7 q=39.1 size=     256KiB time=00:00:02.16 bitrate= 968.1kbits/s speed=0.0242x elapsed=0:01:29.69    \nframe=   67 fps=0.7 q=39.1 size=     256KiB time=00:00:02.16 bitrate= 968.1kbits/s speed=0.024x elapsed=0:01:30.25    \nframe=   68 fps=0.7 q=42.0 size=     512KiB time=00:00:02.20 bitrate=1906.7kbits/s speed=0.0242x elapsed=0:01:30.78    \nframe=   68 fps=0.7 q=42.0 size=     512KiB time=00:00:02.20 bitrate=1906.7kbits/s speed=0.0241x elapsed=0:01:31.31    \nframe=   68 fps=0.7 q=42.0 size=     512KiB time=00:00:02.20 bitrate=1906.7kbits/s speed=0.0239x elapsed=0:01:31.87    \nframe=   68 fps=0.7 q=42.0 size=     512KiB time=00:00:02.20 bitrate=1906.7kbits/s speed=0.0238x elapsed=0:01:32.40    \nframe=   69 fps=0.7 q=35.8 size=     512KiB time=00:00:02.23 bitrate=1878.2kbits/s speed=0.024x elapsed=0:01:32.96    \nframe=   69 fps=0.7 q=35.8 size=     512KiB time=00:00:02.23 bitrate=1878.2kbits/s speed=0.0239x elapsed=0:01:33.50    \nframe=   69 fps=0.7 q=35.8 size=     512KiB time=00:00:02.23 bitrate=1878.2kbits/s speed=0.0237x elapsed=0:01:34.03    \nframe=   70 fps=0.7 q=39.0 size=     512KiB time=00:00:02.26 bitrate=1850.6kbits/s speed=0.024x elapsed=0:01:34.56    \nframe=   70 fps=0.7 q=39.0 size=     512KiB time=00:00:02.26 bitrate=1850.6kbits/s speed=0.0238x elapsed=0:01:35.10    \nframe=   70 fps=0.7 q=39.0 size=     512KiB time=00:00:02.26 bitrate=1850.6kbits/s speed=0.0237x elapsed=0:01:35.64    \nframe=   71 fps=0.7 q=41.7 size=     512KiB time=00:00:02.30 bitrate=1823.8kbits/s speed=0.0239x elapsed=0:01:36.18    \nframe=   71 fps=0.7 q=41.7 size=     512KiB time=00:00:02.30 bitrate=1823.8kbits/s speed=0.0238x elapsed=0:01:36.75    \nframe=   71 fps=0.7 q=41.7 size=     512KiB time=00:00:02.30 bitrate=1823.8kbits/s speed=0.0236x elapsed=0:01:37.30    \nframe=   71 fps=0.7 q=41.7 size=     512KiB time=00:00:02.30 bitrate=1823.8kbits/s speed=0.0235x elapsed=0:01:37.90    \nframe=   71 fps=0.7 q=41.7 size=     512KiB time=00:00:02.30 bitrate=1823.8kbits/s speed=0.0234x elapsed=0:01:38.49    \nframe=   71 fps=0.7 q=41.7 size=     512KiB time=00:00:02.30 bitrate=1823.8kbits/s speed=0.0232x elapsed=0:01:39.02    \nframe=   72 fps=0.7 q=41.9 size=     512KiB time=00:00:02.33 bitrate=1797.7kbits/s speed=0.0234x elapsed=0:01:39.54    \nframe=   72 fps=0.7 q=41.9 size=     512KiB time=00:00:02.33 bitrate=1797.7kbits/s speed=0.0233x elapsed=0:01:40.07    \nframe=   72 fps=0.7 q=41.9 size=     512KiB time=00:00:02.33 bitrate=1797.7kbits/s speed=0.0232x elapsed=0:01:40.58    \nframe=   72 fps=0.7 q=41.9 size=     512KiB time=00:00:02.33 bitrate=1797.7kbits/s speed=0.0231x elapsed=0:01:41.10    \nframe=   72 fps=0.7 q=41.9 size=     512KiB time=00:00:02.33 bitrate=1797.7kbits/s speed=0.023x elapsed=0:01:41.63    \nframe=   72 fps=0.7 q=41.9 size=     512KiB time=00:00:02.33 bitrate=1797.7kbits/s speed=0.0228x elapsed=0:01:42.19    \nframe=   72 fps=0.7 q=41.9 size=     512KiB time=00:00:02.33 bitrate=1797.7kbits/s speed=0.0227x elapsed=0:01:42.80    \nframe=   72 fps=0.7 q=41.9 size=     512KiB time=00:00:02.33 bitrate=1797.7kbits/s speed=0.0226x elapsed=0:01:43.38    \nframe=   72 fps=0.7 q=41.9 size=     512KiB time=00:00:02.33 bitrate=1797.7kbits/s speed=0.0224x elapsed=0:01:43.99    \nframe=   72 fps=0.7 q=41.9 size=     512KiB time=00:00:02.33 bitrate=1797.7kbits/s speed=0.0223x elapsed=0:01:44.61    \nframe=   72 fps=0.7 q=41.9 size=     512KiB time=00:00:02.33 bitrate=1797.7kbits/s speed=0.0222x elapsed=0:01:45.21    \nframe=   72 fps=0.7 q=41.9 size=     512KiB time=00:00:02.33 bitrate=1797.7kbits/s speed=0.0221x elapsed=0:01:45.76    \nframe=   73 fps=0.7 q=35.6 size=     512KiB time=00:00:02.36 bitrate=1772.4kbits/s speed=0.0223x elapsed=0:01:46.28    \nframe=   73 fps=0.7 q=35.6 size=     512KiB time=00:00:02.36 bitrate=1772.4kbits/s speed=0.0222x elapsed=0:01:46.83    \nframe=   73 fps=0.7 q=35.6 size=     512KiB time=00:00:02.36 bitrate=1772.4kbits/s speed=0.022x elapsed=0:01:47.35    \nframe=   74 fps=0.7 q=39.0 size=     512KiB time=00:00:02.40 bitrate=1747.8kbits/s speed=0.0222x elapsed=0:01:47.88    \nframe=   74 fps=0.7 q=39.0 size=     512KiB time=00:00:02.40 bitrate=1747.8kbits/s speed=0.0221x elapsed=0:01:48.47    \nframe=   74 fps=0.7 q=39.0 size=     512KiB time=00:00:02.40 bitrate=1747.8kbits/s speed=0.022x elapsed=0:01:49.04    \nframe=   74 fps=0.7 q=39.0 size=     512KiB time=00:00:02.40 bitrate=1747.8kbits/s speed=0.0219x elapsed=0:01:49.59    \nframe=   74 fps=0.7 q=39.0 size=     512KiB time=00:00:02.40 bitrate=1747.8kbits/s speed=0.0218x elapsed=0:01:50.16    \nframe=   74 fps=0.7 q=39.0 size=     512KiB time=00:00:02.40 bitrate=1747.8kbits/s speed=0.0217x elapsed=0:01:50.75    \nframe=   74 fps=0.7 q=39.0 size=     512KiB time=00:00:02.40 bitrate=1747.8kbits/s speed=0.0216x elapsed=0:01:51.31    \nframe=   74 fps=0.7 q=39.0 size=     512KiB time=00:00:02.40 bitrate=1747.8kbits/s speed=0.0215x elapsed=0:01:51.88    \nframe=   75 fps=0.7 q=41.8 size=     512KiB time=00:00:02.43 bitrate=1723.8kbits/s speed=0.0216x elapsed=0:01:52.41    \nframe=   75 fps=0.7 q=41.8 size=     512KiB time=00:00:02.43 bitrate=1723.8kbits/s speed=0.0215x elapsed=0:01:52.99    \nframe=   75 fps=0.7 q=41.8 size=     512KiB time=00:00:02.43 bitrate=1723.8kbits/s speed=0.0214x elapsed=0:01:53.56    \nframe=   75 fps=0.7 q=41.8 size=     512KiB time=00:00:02.43 bitrate=1723.8kbits/s speed=0.0213x elapsed=0:01:54.09    \nframe=   75 fps=0.7 q=41.8 size=     512KiB time=00:00:02.43 bitrate=1723.8kbits/s speed=0.0212x elapsed=0:01:54.61    \nframe=   75 fps=0.7 q=41.8 size=     512KiB time=00:00:02.43 bitrate=1723.8kbits/s speed=0.0211x elapsed=0:01:55.15    \nframe=   75 fps=0.6 q=41.8 size=     512KiB time=00:00:02.43 bitrate=1723.8kbits/s speed=0.021x elapsed=0:01:55.70    \nframe=   75 fps=0.6 q=41.8 size=     512KiB time=00:00:02.43 bitrate=1723.8kbits/s speed=0.0209x elapsed=0:01:56.29    \nframe=   77 fps=0.7 q=35.6 size=     512KiB time=00:00:02.50 bitrate=1677.9kbits/s speed=0.0214x elapsed=0:01:56.86    \nframe=   77 fps=0.7 q=35.6 size=     512KiB time=00:00:02.50 bitrate=1677.9kbits/s speed=0.0213x elapsed=0:01:57.47    \nframe=   77 fps=0.7 q=35.6 size=     512KiB time=00:00:02.50 bitrate=1677.9kbits/s speed=0.0212x elapsed=0:01:58.05    \nframe=   77 fps=0.6 q=35.6 size=     512KiB time=00:00:02.50 bitrate=1677.9kbits/s speed=0.0211x elapsed=0:01:58.57    \nframe=   77 fps=0.6 q=35.6 size=     512KiB time=00:00:02.50 bitrate=1677.9kbits/s speed=0.021x elapsed=0:01:59.09    \nframe=   77 fps=0.6 q=35.6 size=     512KiB time=00:00:02.50 bitrate=1677.9kbits/s speed=0.0209x elapsed=0:01:59.62    \nframe=   77 fps=0.6 q=35.6 size=     512KiB time=00:00:02.50 bitrate=1677.9kbits/s speed=0.0208x elapsed=0:02:00.17    \nframe=   78 fps=0.6 q=38.9 size=     512KiB time=00:00:02.53 bitrate=1655.8kbits/s speed=0.021x elapsed=0:02:00.72    \nframe=   78 fps=0.6 q=38.9 size=     512KiB time=00:00:02.53 bitrate=1655.8kbits/s speed=0.0209x elapsed=0:02:01.27    \nframe=   78 fps=0.6 q=38.9 size=     512KiB time=00:00:02.53 bitrate=1655.8kbits/s speed=0.0208x elapsed=0:02:01.81    \nframe=   78 fps=0.6 q=38.9 size=     512KiB time=00:00:02.53 bitrate=1655.8kbits/s speed=0.0207x elapsed=0:02:02.33    \nframe=   78 fps=0.6 q=38.9 size=     512KiB time=00:00:02.53 bitrate=1655.8kbits/s speed=0.0206x elapsed=0:02:02.89    \nframe=   78 fps=0.6 q=38.9 size=     512KiB time=00:00:02.53 bitrate=1655.8kbits/s speed=0.0205x elapsed=0:02:03.42    \nframe=   78 fps=0.6 q=38.9 size=     512KiB time=00:00:02.53 bitrate=1655.8kbits/s speed=0.0204x elapsed=0:02:03.95    \nframe=   79 fps=0.6 q=41.5 size=     512KiB time=00:00:02.56 bitrate=1634.3kbits/s speed=0.0206x elapsed=0:02:04.49    \nframe=   80 fps=0.6 q=41.2 size=     512KiB time=00:00:02.60 bitrate=1613.3kbits/s speed=0.0208x elapsed=0:02:05.00    \nframe=   80 fps=0.6 q=41.2 size=     512KiB time=00:00:02.60 bitrate=1613.3kbits/s speed=0.0207x elapsed=0:02:05.54    \nframe=   80 fps=0.6 q=41.2 size=     512KiB time=00:00:02.60 bitrate=1613.3kbits/s speed=0.0206x elapsed=0:02:06.10    \nframe=   80 fps=0.6 q=41.2 size=     512KiB time=00:00:02.60 bitrate=1613.3kbits/s speed=0.0205x elapsed=0:02:06.65    \nframe=   80 fps=0.6 q=41.2 size=     512KiB time=00:00:02.60 bitrate=1613.3kbits/s speed=0.0204x elapsed=0:02:07.18    \nframe=   81 fps=0.6 q=35.7 size=     512KiB time=00:00:02.63 bitrate=1592.9kbits/s speed=0.0206x elapsed=0:02:07.69    \nframe=   81 fps=0.6 q=35.7 size=     512KiB time=00:00:02.63 bitrate=1592.9kbits/s speed=0.0205x elapsed=0:02:08.23    \nframe=   81 fps=0.6 q=35.7 size=     512KiB time=00:00:02.63 bitrate=1592.9kbits/s speed=0.0204x elapsed=0:02:08.78    \nframe=   81 fps=0.6 q=35.7 size=     512KiB time=00:00:02.63 bitrate=1592.9kbits/s speed=0.0204x elapsed=0:02:09.33    \nframe=   81 fps=0.6 q=35.7 size=     512KiB time=00:00:02.63 bitrate=1592.9kbits/s speed=0.0203x elapsed=0:02:09.89    \nframe=   82 fps=0.6 q=38.9 size=     512KiB time=00:00:02.66 bitrate=1573.0kbits/s speed=0.0204x elapsed=0:02:10.41    \nframe=   82 fps=0.6 q=38.9 size=     512KiB time=00:00:02.66 bitrate=1573.0kbits/s speed=0.0204x elapsed=0:02:10.93    \nframe=   82 fps=0.6 q=38.9 size=     512KiB time=00:00:02.66 bitrate=1573.0kbits/s speed=0.0203x elapsed=0:02:11.46    \nframe=   82 fps=0.6 q=38.9 size=     512KiB time=00:00:02.66 bitrate=1573.0kbits/s speed=0.0202x elapsed=0:02:12.07    \nframe=   82 fps=0.6 q=38.9 size=     512KiB time=00:00:02.66 bitrate=1573.0kbits/s speed=0.0201x elapsed=0:02:12.61    \nframe=   82 fps=0.6 q=38.9 size=     512KiB time=00:00:02.66 bitrate=1573.0kbits/s speed=0.02x elapsed=0:02:13.13    \nframe=   82 fps=0.6 q=38.9 size=     512KiB time=00:00:02.66 bitrate=1573.0kbits/s speed=0.0199x elapsed=0:02:13.67    \nframe=   83 fps=0.6 q=41.4 size=     512KiB time=00:00:02.70 bitrate=1553.6kbits/s speed=0.0201x elapsed=0:02:14.22    \nframe=   83 fps=0.6 q=41.4 size=     512KiB time=00:00:02.70 bitrate=1553.6kbits/s speed=0.02x elapsed=0:02:14.79    \nframe=   83 fps=0.6 q=41.4 size=     512KiB time=00:00:02.70 bitrate=1553.6kbits/s speed=0.02x elapsed=0:02:15.32    \nframe=   84 fps=0.6 q=41.6 size=     512KiB time=00:00:02.73 bitrate=1534.6kbits/s speed=0.0201x elapsed=0:02:15.85    \nframe=   84 fps=0.6 q=41.6 size=     512KiB time=00:00:02.73 bitrate=1534.6kbits/s speed=0.02x elapsed=0:02:16.38    \nframe=   85 fps=0.6 q=35.6 size=     512KiB time=00:00:02.76 bitrate=1516.1kbits/s speed=0.0202x elapsed=0:02:16.91    \nframe=   85 fps=0.6 q=35.6 size=     512KiB time=00:00:02.76 bitrate=1516.1kbits/s speed=0.0201x elapsed=0:02:17.44    \nframe=   87 fps=0.6 q=41.7 size=     512KiB time=00:00:02.83 bitrate=1480.5kbits/s speed=0.0205x elapsed=0:02:18.00    \nframe=   87 fps=0.6 q=41.7 size=     512KiB time=00:00:02.83 bitrate=1480.5kbits/s speed=0.0205x elapsed=0:02:18.54    \nframe=   87 fps=0.6 q=41.7 size=     512KiB time=00:00:02.83 bitrate=1480.5kbits/s speed=0.0204x elapsed=0:02:19.09    \nframe=   88 fps=0.6 q=41.4 size=     512KiB time=00:00:02.86 bitrate=1463.3kbits/s speed=0.0205x elapsed=0:02:19.60    \nframe=   89 fps=0.6 q=41.1 size=     512KiB time=00:00:02.90 bitrate=1446.4kbits/s speed=0.0207x elapsed=0:02:20.14    \nframe=   89 fps=0.6 q=41.1 size=     512KiB time=00:00:02.90 bitrate=1446.4kbits/s speed=0.0206x elapsed=0:02:20.67    \nframe=   89 fps=0.6 q=41.1 size=     512KiB time=00:00:02.90 bitrate=1446.4kbits/s speed=0.0205x elapsed=0:02:21.20    \nframe=   90 fps=0.6 q=35.6 size=     512KiB time=00:00:02.93 bitrate=1430.0kbits/s speed=0.0207x elapsed=0:02:21.74    \nframe=   90 fps=0.6 q=35.6 size=     512KiB time=00:00:02.93 bitrate=1430.0kbits/s speed=0.0206x elapsed=0:02:22.28    \nframe=   91 fps=0.6 q=39.8 size=     512KiB time=00:00:02.96 bitrate=1413.9kbits/s speed=0.0208x elapsed=0:02:22.81    \nframe=   92 fps=0.6 q=41.7 size=     512KiB time=00:00:03.00 bitrate=1398.2kbits/s speed=0.0209x elapsed=0:02:23.34    \nframe=   92 fps=0.6 q=41.7 size=     512KiB time=00:00:03.00 bitrate=1398.2kbits/s speed=0.0209x elapsed=0:02:23.85    \nframe=   92 fps=0.6 q=41.7 size=     512KiB time=00:00:03.00 bitrate=1398.2kbits/s speed=0.0208x elapsed=0:02:24.36    \nframe=   93 fps=0.6 q=40.9 size=     512KiB time=00:00:03.03 bitrate=1382.9kbits/s speed=0.0209x elapsed=0:02:24.89    \nframe=   93 fps=0.6 q=40.9 size=     512KiB time=00:00:03.03 bitrate=1382.9kbits/s speed=0.0209x elapsed=0:02:25.44    \nframe=   93 fps=0.6 q=40.9 size=     512KiB time=00:00:03.03 bitrate=1382.9kbits/s speed=0.0208x elapsed=0:02:25.98    \nframe=   94 fps=0.6 q=40.9 size=     512KiB time=00:00:03.06 bitrate=1367.8kbits/s speed=0.0209x elapsed=0:02:26.49    \nframe=   94 fps=0.6 q=40.9 size=     512KiB time=00:00:03.06 bitrate=1367.8kbits/s speed=0.0209x elapsed=0:02:27.00    \nframe=   95 fps=0.6 q=35.3 size=     512KiB time=00:00:03.10 bitrate=1353.1kbits/s speed=0.021x elapsed=0:02:27.52    \nframe=   96 fps=0.6 q=38.5 size=     512KiB time=00:00:03.13 bitrate=1338.7kbits/s speed=0.0212x elapsed=0:02:28.03    \nframe=   96 fps=0.6 q=38.5 size=     512KiB time=00:00:03.13 bitrate=1338.7kbits/s speed=0.0211x elapsed=0:02:28.55    \nframe=   97 fps=0.7 q=40.7 size=     512KiB time=00:00:03.16 bitrate=1324.6kbits/s speed=0.0212x elapsed=0:02:29.07    \nframe=   97 fps=0.6 q=40.7 size=     512KiB time=00:00:03.16 bitrate=1324.6kbits/s speed=0.0212x elapsed=0:02:29.60    \nframe=   97 fps=0.6 q=40.7 size=     512KiB time=00:00:03.16 bitrate=1324.6kbits/s speed=0.0211x elapsed=0:02:30.15    \nframe=   97 fps=0.6 q=40.7 size=     512KiB time=00:00:03.16 bitrate=1324.6kbits/s speed=0.021x elapsed=0:02:30.67    \nframe=   97 fps=0.6 q=40.7 size=     512KiB time=00:00:03.16 bitrate=1324.6kbits/s speed=0.0209x elapsed=0:02:31.19    \nframe=   98 fps=0.6 q=40.7 size=     512KiB time=00:00:03.20 bitrate=1310.8kbits/s speed=0.0211x elapsed=0:02:31.72    \nframe=   98 fps=0.6 q=40.7 size=     512KiB time=00:00:03.20 bitrate=1310.8kbits/s speed=0.021x elapsed=0:02:32.24    \nframe=   99 fps=0.6 q=35.3 size=     512KiB time=00:00:03.23 bitrate=1297.3kbits/s speed=0.0212x elapsed=0:02:32.77    \nframe=  100 fps=0.7 q=38.5 size=     768KiB time=00:00:03.26 bitrate=1926.1kbits/s speed=0.0213x elapsed=0:02:33.31    \nframe=  100 fps=0.7 q=38.5 size=     768KiB time=00:00:03.26 bitrate=1926.1kbits/s speed=0.0212x elapsed=0:02:33.83    \nframe=  100 fps=0.6 q=38.5 size=     768KiB time=00:00:03.26 bitrate=1926.1kbits/s speed=0.0212x elapsed=0:02:34.36    \nframe=  100 fps=0.6 q=38.5 size=     768KiB time=00:00:03.26 bitrate=1926.1kbits/s speed=0.0211x elapsed=0:02:34.87    \nframe=  100 fps=0.6 q=38.5 size=     768KiB time=00:00:03.26 bitrate=1926.1kbits/s speed=0.021x elapsed=0:02:35.41    \nframe=  100 fps=0.6 q=38.5 size=     768KiB time=00:00:03.26 bitrate=1926.1kbits/s speed=0.0209x elapsed=0:02:35.99    \nframe=  101 fps=0.6 q=40.7 size=     768KiB time=00:00:03.30 bitrate=1906.6kbits/s speed=0.0211x elapsed=0:02:36.56    \nframe=  101 fps=0.6 q=40.7 size=     768KiB time=00:00:03.30 bitrate=1906.6kbits/s speed=0.021x elapsed=0:02:37.15    \nframe=  101 fps=0.6 q=40.7 size=     768KiB time=00:00:03.30 bitrate=1906.6kbits/s speed=0.0209x elapsed=0:02:37.78    \nframe=  101 fps=0.6 q=40.7 size=     768KiB time=00:00:03.30 bitrate=1906.6kbits/s speed=0.0208x elapsed=0:02:38.38    \nframe=  101 fps=0.6 q=40.7 size=     768KiB time=00:00:03.30 bitrate=1906.6kbits/s speed=0.0208x elapsed=0:02:38.91    \nframe=  102 fps=0.6 q=40.5 size=     768KiB time=00:00:03.33 bitrate=1887.5kbits/s speed=0.0209x elapsed=0:02:39.44    \nframe=  102 fps=0.6 q=40.5 size=     768KiB time=00:00:03.33 bitrate=1887.5kbits/s speed=0.0208x elapsed=0:02:39.97    \nframe=  102 fps=0.6 q=40.5 size=     768KiB time=00:00:03.33 bitrate=1887.5kbits/s speed=0.0208x elapsed=0:02:40.49    \nframe=  102 fps=0.6 q=40.5 size=     768KiB time=00:00:03.33 bitrate=1887.5kbits/s speed=0.0207x elapsed=0:02:41.07    \nframe=  102 fps=0.6 q=40.5 size=     768KiB time=00:00:03.33 bitrate=1887.5kbits/s speed=0.0206x elapsed=0:02:41.65    \nframe=  102 fps=0.6 q=40.5 size=     768KiB time=00:00:03.33 bitrate=1887.5kbits/s speed=0.0205x elapsed=0:02:42.25    \nframe=  102 fps=0.6 q=40.5 size=     768KiB time=00:00:03.33 bitrate=1887.5kbits/s speed=0.0205x elapsed=0:02:42.85    \nframe=  103 fps=0.6 q=35.7 size=     768KiB time=00:00:03.33 bitrate=1887.5kbits/s speed=0.0204x elapsed=0:02:43.40    \nframe=  103 fps=0.6 q=35.7 size=     768KiB time=00:00:03.36 bitrate=1868.9kbits/s speed=0.0205x elapsed=0:02:43.97    \nframe=  103 fps=0.6 q=35.7 size=     768KiB time=00:00:03.36 bitrate=1868.9kbits/s speed=0.0205x elapsed=0:02:44.52    \nframe=  103 fps=0.6 q=35.7 size=     768KiB time=00:00:03.36 bitrate=1868.9kbits/s speed=0.0204x elapsed=0:02:45.07    \nframe=  103 fps=0.6 q=35.7 size=     768KiB time=00:00:03.36 bitrate=1868.9kbits/s speed=0.0203x elapsed=0:02:45.59    \nframe=  104 fps=0.6 q=38.2 size=     768KiB time=00:00:03.40 bitrate=1850.5kbits/s speed=0.0205x elapsed=0:02:46.14    \nframe=  104 fps=0.6 q=38.2 size=     768KiB time=00:00:03.40 bitrate=1850.5kbits/s speed=0.0204x elapsed=0:02:46.64    \nframe=  104 fps=0.6 q=38.2 size=     768KiB time=00:00:03.40 bitrate=1850.5kbits/s speed=0.0203x elapsed=0:02:47.18    \nframe=  104 fps=0.6 q=38.2 size=     768KiB time=00:00:03.40 bitrate=1850.5kbits/s speed=0.0203x elapsed=0:02:47.74    \nframe=  104 fps=0.6 q=38.2 size=     768KiB time=00:00:03.40 bitrate=1850.5kbits/s speed=0.0202x elapsed=0:02:48.28    \nframe=  104 fps=0.6 q=38.2 size=     768KiB time=00:00:03.40 bitrate=1850.5kbits/s speed=0.0201x elapsed=0:02:48.85    \nframe=  104 fps=0.6 q=38.2 size=     768KiB time=00:00:03.40 bitrate=1850.5kbits/s speed=0.0201x elapsed=0:02:49.38    \nframe=  105 fps=0.6 q=40.7 size=     768KiB time=00:00:03.43 bitrate=1832.6kbits/s speed=0.0202x elapsed=0:02:49.93    \nframe=  105 fps=0.6 q=40.7 size=     768KiB time=00:00:03.43 bitrate=1832.6kbits/s speed=0.0201x elapsed=0:02:50.44    \nframe=  106 fps=0.6 q=40.6 size=     768KiB time=00:00:03.46 bitrate=1814.9kbits/s speed=0.0203x elapsed=0:02:50.97    \nframe=  106 fps=0.6 q=40.6 size=     768KiB time=00:00:03.46 bitrate=1814.9kbits/s speed=0.0202x elapsed=0:02:51.49    \nframe=  107 fps=0.6 q=35.5 size=     768KiB time=00:00:03.50 bitrate=1797.7kbits/s speed=0.0203x elapsed=0:02:52.03    \nframe=  107 fps=0.6 q=35.5 size=     768KiB time=00:00:03.50 bitrate=1797.7kbits/s speed=0.0203x elapsed=0:02:52.57    \nframe=  108 fps=0.6 q=38.7 size=     768KiB time=00:00:03.53 bitrate=1780.7kbits/s speed=0.0204x elapsed=0:02:53.11    \nframe=  108 fps=0.6 q=38.7 size=     768KiB time=00:00:03.53 bitrate=1780.7kbits/s speed=0.0203x elapsed=0:02:53.63    \nframe=  108 fps=0.6 q=38.7 size=     768KiB time=00:00:03.53 bitrate=1780.7kbits/s speed=0.0203x elapsed=0:02:54.16    \nframe=  108 fps=0.6 q=38.7 size=     768KiB time=00:00:03.53 bitrate=1780.7kbits/s speed=0.0202x elapsed=0:02:54.69    \nframe=  109 fps=0.6 q=41.1 size=     768KiB time=00:00:03.56 bitrate=1764.1kbits/s speed=0.0204x elapsed=0:02:55.20    \nframe=  109 fps=0.6 q=41.1 size=     768KiB time=00:00:03.56 bitrate=1764.1kbits/s speed=0.0203x elapsed=0:02:55.72    \nframe=  109 fps=0.6 q=41.1 size=     768KiB time=00:00:03.56 bitrate=1764.1kbits/s speed=0.0202x elapsed=0:02:56.24    \nframe=  111 fps=0.6 q=35.4 size=     768KiB time=00:00:03.63 bitrate=1731.7kbits/s speed=0.0206x elapsed=0:02:56.79    \nframe=  111 fps=0.6 q=35.4 size=     768KiB time=00:00:03.63 bitrate=1731.7kbits/s speed=0.0205x elapsed=0:02:57.30    \nframe=  112 fps=0.6 q=38.1 size=     768KiB time=00:00:03.66 bitrate=1715.9kbits/s speed=0.0206x elapsed=0:02:57.83    \nframe=  112 fps=0.6 q=38.1 size=     768KiB time=00:00:03.66 bitrate=1715.9kbits/s speed=0.0206x elapsed=0:02:58.36    \nframe=  113 fps=0.6 q=40.3 size=     768KiB time=00:00:03.70 bitrate=1700.5kbits/s speed=0.0207x elapsed=0:02:58.88    \nframe=  113 fps=0.6 q=40.3 size=     768KiB time=00:00:03.70 bitrate=1700.5kbits/s speed=0.0206x elapsed=0:02:59.39    \nframe=  114 fps=0.6 q=40.3 size=     768KiB time=00:00:03.73 bitrate=1685.3kbits/s speed=0.0207x elapsed=0:02:59.92    \nframe=  115 fps=0.6 q=35.4 size=     768KiB time=00:00:03.76 bitrate=1670.4kbits/s speed=0.0209x elapsed=0:03:00.43    \nframe=  116 fps=0.6 q=38.3 size=     768KiB time=00:00:03.80 bitrate=1655.7kbits/s speed=0.021x elapsed=0:03:00.95    \nframe=  116 fps=0.6 q=38.3 size=     768KiB time=00:00:03.80 bitrate=1655.7kbits/s speed=0.0209x elapsed=0:03:01.45    \nframe=  117 fps=0.6 q=40.6 size=     768KiB time=00:00:03.83 bitrate=1641.3kbits/s speed=0.0211x elapsed=0:03:01.97    \nframe=  118 fps=0.6 q=40.1 size=     768KiB time=00:00:03.86 bitrate=1627.2kbits/s speed=0.0212x elapsed=0:03:02.50    \nframe=  118 fps=0.6 q=40.1 size=     768KiB time=00:00:03.86 bitrate=1627.2kbits/s speed=0.0211x elapsed=0:03:03.01    \nframe=  118 fps=0.6 q=40.1 size=     768KiB time=00:00:03.86 bitrate=1627.2kbits/s speed=0.0211x elapsed=0:03:03.53    \nframe=  118 fps=0.6 q=40.1 size=     768KiB time=00:00:03.86 bitrate=1627.2kbits/s speed=0.021x elapsed=0:03:04.05    \nframe=  119 fps=0.6 q=35.4 size=     768KiB time=00:00:03.90 bitrate=1613.3kbits/s speed=0.0211x elapsed=0:03:04.58    \nframe=  119 fps=0.6 q=35.4 size=     768KiB time=00:00:03.90 bitrate=1613.3kbits/s speed=0.0211x elapsed=0:03:05.11    \nframe=  119 fps=0.6 q=35.4 size=     768KiB time=00:00:03.90 bitrate=1613.3kbits/s speed=0.021x elapsed=0:03:05.73    \nframe=  119 fps=0.6 q=35.4 size=     768KiB time=00:00:03.90 bitrate=1613.3kbits/s speed=0.0209x elapsed=0:03:06.33    \nframe=  119 fps=0.6 q=35.4 size=     768KiB time=00:00:03.90 bitrate=1613.3kbits/s speed=0.0209x elapsed=0:03:06.94    \nframe=  119 fps=0.6 q=35.4 size=     768KiB time=00:00:03.90 bitrate=1613.3kbits/s speed=0.0208x elapsed=0:03:07.50    \nframe=  120 fps=0.6 q=38.1 size=     768KiB time=00:00:03.93 bitrate=1599.6kbits/s speed=0.0209x elapsed=0:03:08.05    \nframe=  120 fps=0.6 q=38.1 size=     768KiB time=00:00:03.93 bitrate=1599.6kbits/s speed=0.0209x elapsed=0:03:08.61    \nframe=  120 fps=0.6 q=38.1 size=     768KiB time=00:00:03.93 bitrate=1599.6kbits/s speed=0.0208x elapsed=0:03:09.17    \nframe=  120 fps=0.6 q=38.1 size=     768KiB time=00:00:03.93 bitrate=1599.6kbits/s speed=0.0207x elapsed=0:03:09.71    \nframe=  120 fps=0.6 q=38.1 size=     768KiB time=00:00:03.93 bitrate=1599.6kbits/s speed=0.0207x elapsed=0:03:10.25    \nframe=  120 fps=0.6 q=38.1 size=     768KiB time=00:00:03.93 bitrate=1599.6kbits/s speed=0.0206x elapsed=0:03:10.79    \nframe=  121 fps=0.6 q=40.3 size=     768KiB time=00:00:03.96 bitrate=1586.2kbits/s speed=0.0207x elapsed=0:03:11.35    \nframe=  121 fps=0.6 q=40.3 size=     768KiB time=00:00:03.96 bitrate=1586.2kbits/s speed=0.0207x elapsed=0:03:11.89    \nframe=  121 fps=0.6 q=40.3 size=     768KiB time=00:00:03.96 bitrate=1586.2kbits/s speed=0.0206x elapsed=0:03:12.43    \nframe=  121 fps=0.6 q=40.3 size=     768KiB time=00:00:03.96 bitrate=1586.2kbits/s speed=0.0206x elapsed=0:03:12.98    \nframe=  121 fps=0.6 q=40.3 size=     768KiB time=00:00:03.96 bitrate=1586.2kbits/s speed=0.0205x elapsed=0:03:13.55    \nframe=  121 fps=0.6 q=40.3 size=     768KiB time=00:00:03.96 bitrate=1586.2kbits/s speed=0.0204x elapsed=0:03:14.08    \nframe=  121 fps=0.6 q=40.3 size=     768KiB time=00:00:03.96 bitrate=1586.2kbits/s speed=0.0204x elapsed=0:03:14.63    \nframe=  121 fps=0.6 q=40.3 size=     768KiB time=00:00:03.96 bitrate=1586.2kbits/s speed=0.0203x elapsed=0:03:15.20    \nframe=  121 fps=0.6 q=40.3 size=     768KiB time=00:00:03.96 bitrate=1586.2kbits/s speed=0.0203x elapsed=0:03:15.76    \nframe=  122 fps=0.6 q=40.6 size=     768KiB time=00:00:04.00 bitrate=1573.0kbits/s speed=0.0204x elapsed=0:03:16.28    \nframe=  122 fps=0.6 q=40.6 size=     768KiB time=00:00:04.00 bitrate=1573.0kbits/s speed=0.0203x elapsed=0:03:16.84    \nframe=  122 fps=0.6 q=40.6 size=     768KiB time=00:00:04.00 bitrate=1573.0kbits/s speed=0.0203x elapsed=0:03:17.37    \nframe=  122 fps=0.6 q=40.6 size=     768KiB time=00:00:04.00 bitrate=1573.0kbits/s speed=0.0202x elapsed=0:03:17.91    \nframe=  123 fps=0.6 q=35.2 size=     768KiB time=00:00:04.03 bitrate=1560.0kbits/s speed=0.0203x elapsed=0:03:18.49    \nframe=  124 fps=0.6 q=38.0 size=     768KiB time=00:00:04.06 bitrate=1547.2kbits/s speed=0.0204x elapsed=0:03:19.07    \nframe=  124 fps=0.6 q=38.0 size=     768KiB time=00:00:04.06 bitrate=1547.2kbits/s speed=0.0204x elapsed=0:03:19.67    \nframe=  125 fps=0.6 q=39.8 size=     768KiB time=00:00:04.10 bitrate=1534.6kbits/s speed=0.0205x elapsed=0:03:20.21    \nframe=  125 fps=0.6 q=39.8 size=     768KiB time=00:00:04.10 bitrate=1534.6kbits/s speed=0.0204x elapsed=0:03:20.72    \nframe=  125 fps=0.6 q=39.8 size=     768KiB time=00:00:04.10 bitrate=1534.6kbits/s speed=0.0204x elapsed=0:03:21.30    \nframe=  125 fps=0.6 q=39.8 size=     768KiB time=00:00:04.10 bitrate=1534.6kbits/s speed=0.0203x elapsed=0:03:21.84    \nframe=  125 fps=0.6 q=39.8 size=     768KiB time=00:00:04.10 bitrate=1534.6kbits/s speed=0.0203x elapsed=0:03:22.38    \nframe=  125 fps=0.6 q=39.8 size=     768KiB time=00:00:04.10 bitrate=1534.6kbits/s speed=0.0202x elapsed=0:03:22.93    \nframe=  125 fps=0.6 q=39.8 size=     768KiB time=00:00:04.10 bitrate=1534.6kbits/s speed=0.0202x elapsed=0:03:23.44    \nframe=  125 fps=0.6 q=39.8 size=     768KiB time=00:00:04.10 bitrate=1534.6kbits/s speed=0.0201x elapsed=0:03:23.96    \nframe=  125 fps=0.6 q=39.8 size=     768KiB time=00:00:04.10 bitrate=1534.6kbits/s speed=0.02x elapsed=0:03:24.50    \nframe=  126 fps=0.6 q=39.9 size=     768KiB time=00:00:04.13 bitrate=1522.2kbits/s speed=0.0202x elapsed=0:03:25.03    \nframe=  127 fps=0.6 q=35.4 size=     768KiB time=00:00:04.16 bitrate=1510.0kbits/s speed=0.0203x elapsed=0:03:25.59    \nframe=  127 fps=0.6 q=35.4 size=     768KiB time=00:00:04.16 bitrate=1510.0kbits/s speed=0.0202x elapsed=0:03:26.11    \nframe=  127 fps=0.6 q=35.4 size=     768KiB time=00:00:04.16 bitrate=1510.0kbits/s speed=0.0202x elapsed=0:03:26.65    \nframe=  128 fps=0.6 q=37.7 size=     768KiB time=00:00:04.20 bitrate=1498.0kbits/s speed=0.0203x elapsed=0:03:27.16    \nframe=  128 fps=0.6 q=37.7 size=     768KiB time=00:00:04.20 bitrate=1498.0kbits/s speed=0.0202x elapsed=0:03:27.69    \nframe=  128 fps=0.6 q=37.7 size=     768KiB time=00:00:04.20 bitrate=1498.0kbits/s speed=0.0202x elapsed=0:03:28.22    \nframe=  128 fps=0.6 q=37.7 size=     768KiB time=00:00:04.20 bitrate=1498.0kbits/s speed=0.0201x elapsed=0:03:28.73    \nframe=  128 fps=0.6 q=37.7 size=     768KiB time=00:00:04.20 bitrate=1498.0kbits/s speed=0.0201x elapsed=0:03:29.26    \nframe=  128 fps=0.6 q=37.7 size=     768KiB time=00:00:04.20 bitrate=1498.0kbits/s speed=0.02x elapsed=0:03:29.79    \nframe=  129 fps=0.6 q=39.9 size=     768KiB time=00:00:04.23 bitrate=1486.3kbits/s speed=0.0201x elapsed=0:03:30.30    \nframe=  129 fps=0.6 q=39.9 size=     768KiB time=00:00:04.23 bitrate=1486.3kbits/s speed=0.0201x elapsed=0:03:30.86    \nframe=  129 fps=0.6 q=39.9 size=     768KiB time=00:00:04.23 bitrate=1486.3kbits/s speed=0.02x elapsed=0:03:31.39    \nframe=  129 fps=0.6 q=39.9 size=     768KiB time=00:00:04.23 bitrate=1486.3kbits/s speed=0.02x elapsed=0:03:31.92    \nframe=  130 fps=0.6 q=40.2 size=     768KiB time=00:00:04.26 bitrate=1474.6kbits/s speed=0.0201x elapsed=0:03:32.45    \nframe=  131 fps=0.6 q=35.2 size=     768KiB time=00:00:04.30 bitrate=1463.2kbits/s speed=0.0202x elapsed=0:03:32.96    \nframe=  131 fps=0.6 q=35.2 size=     768KiB time=00:00:04.30 bitrate=1463.2kbits/s speed=0.0201x elapsed=0:03:33.50    \nframe=  132 fps=0.6 q=37.7 size=    1024KiB time=00:00:04.33 bitrate=1935.9kbits/s speed=0.0202x elapsed=0:03:34.06    \nframe=  132 fps=0.6 q=37.7 size=    1024KiB time=00:00:04.33 bitrate=1935.9kbits/s speed=0.0202x elapsed=0:03:34.58    \nframe=  132 fps=0.6 q=37.7 size=    1024KiB time=00:00:04.33 bitrate=1935.9kbits/s speed=0.0201x elapsed=0:03:35.18    \nframe=  132 fps=0.6 q=37.7 size=    1024KiB time=00:00:04.33 bitrate=1935.9kbits/s speed=0.0201x elapsed=0:03:35.79    \nframe=  132 fps=0.6 q=37.7 size=    1024KiB time=00:00:04.33 bitrate=1935.9kbits/s speed=0.02x elapsed=0:03:36.39    \nframe=  132 fps=0.6 q=37.7 size=    1024KiB time=00:00:04.33 bitrate=1935.9kbits/s speed=0.02x elapsed=0:03:37.00    \nframe=  133 fps=0.6 q=40.1 size=    1024KiB time=00:00:04.36 bitrate=1921.1kbits/s speed=0.0201x elapsed=0:03:37.52    \nframe=  133 fps=0.6 q=40.1 size=    1024KiB time=00:00:04.36 bitrate=1921.1kbits/s speed=0.02x elapsed=0:03:38.08    \nframe=  134 fps=0.6 q=39.9 size=    1024KiB time=00:00:04.40 bitrate=1906.6kbits/s speed=0.0201x elapsed=0:03:38.62    \nframe=  134 fps=0.6 q=39.9 size=    1024KiB time=00:00:04.40 bitrate=1906.6kbits/s speed=0.0201x elapsed=0:03:39.17    \nframe=  134 fps=0.6 q=39.9 size=    1024KiB time=00:00:04.40 bitrate=1906.6kbits/s speed=0.02x elapsed=0:03:39.76    \nframe=  134 fps=0.6 q=39.9 size=    1024KiB time=00:00:04.40 bitrate=1906.6kbits/s speed=0.02x elapsed=0:03:40.31    \nframe=  135 fps=0.6 q=35.3 size=    1024KiB time=00:00:04.43 bitrate=1892.2kbits/s speed=0.0201x elapsed=0:03:40.84    \nframe=  136 fps=0.6 q=37.2 size=    1024KiB time=00:00:04.46 bitrate=1878.1kbits/s speed=0.0202x elapsed=0:03:41.39    \nframe=  136 fps=0.6 q=37.2 size=    1024KiB time=00:00:04.46 bitrate=1878.1kbits/s speed=0.0201x elapsed=0:03:41.95    \nframe=  136 fps=0.6 q=37.2 size=    1024KiB time=00:00:04.46 bitrate=1878.1kbits/s speed=0.0201x elapsed=0:03:42.47    \nframe=  136 fps=0.6 q=37.2 size=    1024KiB time=00:00:04.46 bitrate=1878.1kbits/s speed=0.02x elapsed=0:03:42.99    \nframe=  137 fps=0.6 q=39.6 size=    1024KiB time=00:00:04.50 bitrate=1864.2kbits/s speed=0.0201x elapsed=0:03:43.52    \nframe=  138 fps=0.6 q=39.0 size=    1024KiB time=00:00:04.53 bitrate=1850.5kbits/s speed=0.0202x elapsed=0:03:44.08    \nframe=  138 fps=0.6 q=39.0 size=    1024KiB time=00:00:04.53 bitrate=1850.5kbits/s speed=0.0202x elapsed=0:03:44.61    \nframe=  138 fps=0.6 q=39.0 size=    1024KiB time=00:00:04.53 bitrate=1850.5kbits/s speed=0.0201x elapsed=0:03:45.16    \nframe=  139 fps=0.6 q=35.2 size=    1024KiB time=00:00:04.56 bitrate=1837.0kbits/s speed=0.0202x elapsed=0:03:45.69    \nframe=  139 fps=0.6 q=35.2 size=    1024KiB time=00:00:04.56 bitrate=1837.0kbits/s speed=0.0202x elapsed=0:03:46.22    \nframe=  140 fps=0.6 q=36.9 size=    1024KiB time=00:00:04.60 bitrate=1823.7kbits/s speed=0.0203x elapsed=0:03:46.75    \nframe=  140 fps=0.6 q=36.9 size=    1024KiB time=00:00:04.60 bitrate=1823.7kbits/s speed=0.0202x elapsed=0:03:47.28    \nframe=  141 fps=0.6 q=39.4 size=    1024KiB time=00:00:04.63 bitrate=1810.6kbits/s speed=0.0203x elapsed=0:03:47.79    \nframe=  141 fps=0.6 q=39.4 size=    1024KiB time=00:00:04.63 bitrate=1810.6kbits/s speed=0.0203x elapsed=0:03:48.30    \nframe=  141 fps=0.6 q=39.4 size=    1024KiB time=00:00:04.63 bitrate=1810.6kbits/s speed=0.0202x elapsed=0:03:48.82    \nframe=  141 fps=0.6 q=39.4 size=    1024KiB time=00:00:04.63 bitrate=1810.6kbits/s speed=0.0202x elapsed=0:03:49.34    \nframe=  142 fps=0.6 q=38.2 size=    1024KiB time=00:00:04.66 bitrate=1797.6kbits/s speed=0.0203x elapsed=0:03:49.88    \nframe=  142 fps=0.6 q=38.2 size=    1024KiB time=00:00:04.66 bitrate=1797.6kbits/s speed=0.0203x elapsed=0:03:50.41    \nframe=  142 fps=0.6 q=38.2 size=    1024KiB time=00:00:04.66 bitrate=1797.6kbits/s speed=0.0202x elapsed=0:03:50.93    \nframe=  142 fps=0.6 q=38.2 size=    1024KiB time=00:00:04.66 bitrate=1797.6kbits/s speed=0.0202x elapsed=0:03:51.45    \nframe=  143 fps=0.6 q=35.5 size=    1024KiB time=00:00:04.70 bitrate=1784.9kbits/s speed=0.0203x elapsed=0:03:51.98    \nframe=  143 fps=0.6 q=35.5 size=    1024KiB time=00:00:04.70 bitrate=1784.9kbits/s speed=0.0202x elapsed=0:03:52.51    \nframe=  143 fps=0.6 q=35.5 size=    1024KiB time=00:00:04.70 bitrate=1784.9kbits/s speed=0.0202x elapsed=0:03:53.04    \nframe=  144 fps=0.6 q=36.1 size=    1024KiB time=00:00:04.73 bitrate=1772.3kbits/s speed=0.0203x elapsed=0:03:53.57    \nframe=  144 fps=0.6 q=36.1 size=    1024KiB time=00:00:04.73 bitrate=1772.3kbits/s speed=0.0202x elapsed=0:03:54.11    \nframe=  144 fps=0.6 q=36.1 size=    1024KiB time=00:00:04.73 bitrate=1772.3kbits/s speed=0.0202x elapsed=0:03:54.63    \nframe=  144 fps=0.6 q=36.1 size=    1024KiB time=00:00:04.73 bitrate=1772.3kbits/s speed=0.0201x elapsed=0:03:55.17    \nframe=  144 fps=0.6 q=36.1 size=    1024KiB time=00:00:04.73 bitrate=1772.3kbits/s speed=0.0201x elapsed=0:03:55.69    \nframe=  145 fps=0.6 q=38.3 size=    1024KiB time=00:00:04.76 bitrate=1759.9kbits/s speed=0.0202x elapsed=0:03:56.24    \nframe=  145 fps=0.6 q=38.3 size=    1024KiB time=00:00:04.76 bitrate=1759.9kbits/s speed=0.0201x elapsed=0:03:56.76    \nframe=  146 fps=0.6 q=37.6 size=    1024KiB time=00:00:04.80 bitrate=1747.7kbits/s speed=0.0202x elapsed=0:03:57.29    \nframe=  147 fps=0.6 q=37.0 size=    1024KiB time=00:00:04.83 bitrate=1735.6kbits/s speed=0.0203x elapsed=0:03:57.81    \nframe=  148 fps=0.6 q=34.5 size=    1024KiB time=00:00:04.86 bitrate=1723.8kbits/s speed=0.0204x elapsed=0:03:58.35    \nframe=  148 fps=0.6 q=34.5 size=    1024KiB time=00:00:04.86 bitrate=1723.8kbits/s speed=0.0204x elapsed=0:03:58.88    \nframe=  148 fps=0.6 q=34.5 size=    1024KiB time=00:00:04.86 bitrate=1723.8kbits/s speed=0.0203x elapsed=0:03:59.47    \nframe=  148 fps=0.6 q=34.5 size=    1024KiB time=00:00:04.86 bitrate=1723.8kbits/s speed=0.0203x elapsed=0:04:00.01    \nframe=  148 fps=0.6 q=34.5 size=    1024KiB time=00:00:04.86 bitrate=1723.8kbits/s speed=0.0202x elapsed=0:04:00.54    \nframe=  148 fps=0.6 q=34.5 size=    1024KiB time=00:00:04.86 bitrate=1723.8kbits/s speed=0.0202x elapsed=0:04:01.05    \n[mp4 @ 000002872df69740] Starting second pass: moving the moov atom to the beginning of the file\n[out#0/mp4 @ 000002872df5ac00] video:1186KiB audio:0KiB subtitle:0KiB other streams:0KiB global headers:2KiB muxing overhead: 0.436604%\nframe=  150 fps=0.6 q=35.0 Lsize=    1192KiB time=00:00:04.93 bitrate=1978.6kbits/s speed=0.0204x elapsed=0:04:01.35    \nx265 [info]: frame I:      1, Avg QP:36.35  kb/s: 12572.16\nx265 [info]: frame P:     37, Avg QP:36.31  kb/s: 5663.99 \nx265 [info]: frame B:    112, Avg QP:40.79  kb/s: 618.53  \nx265 [info]: Weighted P-Frames: Y:13.5% UV:13.5%\n\nencoded 150 frames in 241.05s (0.62 fps), 1942.77 kb/s, Avg QP:39.65\n",
  "seconds": 241.66907143592834,
  "probe_out": {}
}